<svg width="24" height="25" viewBox="0 0 24 25" fill="none" xmlns="http://www.w3.org/2000/svg">
<path d="M16 10.5H8C7.31 10.5 6.75 11.06 6.75 11.75V12.8C6.78 12.79 6.8 12.78 6.83 12.77C6.95 12.71 7.08 12.67 7.21 12.63C7.27 12.61 7.33 12.59 7.4 12.57C7.6 12.53 7.8 12.5 8.01 12.5H16.01C16.22 12.5 16.42 12.53 16.62 12.57C16.68 12.58 16.74 12.61 16.81 12.63C16.94 12.67 17.07 12.71 17.19 12.77C17.22 12.78 17.25 12.79 17.27 12.8V11.75C17.25 11.06 16.69 10.5 16 10.5Z" fill="white"/>
<path d="M16 14H8C7.31 14 6.75 14.56 6.75 15.25V15.75H9.5C9.91 15.75 10.25 16.09 10.25 16.5C10.25 17.46 11.04 18.25 12 18.25C12.96 18.25 13.75 17.46 13.75 16.5C13.75 16.09 14.09 15.75 14.5 15.75H17.25V15.25C17.25 14.56 16.69 14 16 14Z" fill="white"/>
<path d="M16 7.25H8C7.31 7.25 6.75 7.81 6.75 8.5V9.31C7.13 9.12 7.55 9 8 9H16C16.45 9 16.87 9.12 17.25 9.31V8.5C17.25 7.81 16.69 7.25 16 7.25Z" fill="white"/>
<path d="M16.19 2.75H7.81C4.17 2.75 2 4.92 2 8.56V16.93C2 20.58 4.17 22.75 7.81 22.75H16.18C19.82 22.75 21.99 20.58 21.99 16.94V8.56C22 4.92 19.83 2.75 16.19 2.75ZM19 17.25H18H15.16C14.82 18.68 13.53 19.75 12 19.75C10.47 19.75 9.18 18.68 8.84 17.25H6H5C4.59 17.25 4.25 16.91 4.25 16.5C4.25 16.09 4.59 15.75 5 15.75H5.25V15.25V14.75V11.75V8.5C5.25 6.98 6.48 5.75 8 5.75H16C17.52 5.75 18.75 6.98 18.75 8.5V11.75V14.75V15.25V15.75H19C19.41 15.75 19.75 16.09 19.75 16.5C19.75 16.91 19.41 17.25 19 17.25Z" fill="white"/>
</svg>
